<?xml version="1.0" encoding="UTF-8"?>
<svg xmlns="http://www.w3.org/2000/svg" width="64" height="64" viewBox="0 0 64 64" role="img" aria-label="StarCraft  A Gęnese">
  <defs>
    <radialGradient id="bg" cx="50%" cy="45%" r="70%">
      <stop offset="0%" stop-color="#1a1a1a"/>
      <stop offset="70%" stop-color="#0b0b0b"/>
      <stop offset="100%" stop-color="#050505"/>
    </radialGradient>
    <radialGradient id="ember" cx="50%" cy="45%" r="60%">
      <stop offset="0%" stop-color="#f4e6b6" stop-opacity="0.95"/>
      <stop offset="55%" stop-color="#c9a84c" stop-opacity="0.9"/>
      <stop offset="100%" stop-color="#c9a84c" stop-opacity="0"/>
    </radialGradient>
    <linearGradient id="gold" x1="0%" y1="0%" x2="100%" y2="100%">
      <stop offset="0%" stop-color="#f4e6b6"/>
      <stop offset="45%" stop-color="#c9a84c"/>
      <stop offset="100%" stop-color="#8e6f1e"/>
    </linearGradient>
    <filter id="softGlow" x="-40%" y="-40%" width="180%" height="180%">
      <feGaussianBlur stdDeviation="1.6" result="b"/>
      <feMerge>
        <feMergeNode in="b"/>
        <feMergeNode in="SourceGraphic"/>
      </feMerge>
    </filter>
  </defs>

  <rect x="0" y="0" width="64" height="64" rx="14" fill="url(#bg)"/>
  <circle cx="32" cy="30" r="20" fill="url(#ember)"/>

  <g filter="url(#softGlow)">
    <path
      d="M40.2 18.8c-3-2.8-8.6-3.4-13.1-.8-3.3 1.9-5 5.2-4.1 8.1.7 2.2 2.8 3.9 6.6 4.9l4.2 1.1c2.9.8 3.8 1.7 4.1 2.8.4 1.6-.8 3.4-3 4.7-3.4 2-8.1 1.6-10.7-.8l-2.2 2.6c3.5 3.2 10 3.9 14.9 1.1 3.7-2.1 5.7-5.7 4.8-8.9-.7-2.6-3-4.4-7.4-5.6l-4.2-1.1c-2.5-.7-3.2-1.5-3.5-2.4-.5-1.5.6-3.2 2.6-4.4 3-1.8 7-1.5 9 0.4l2-2.8z"
      fill="url(#gold)"
    />
    <path d="M44.5 15.5l1.4 3.5 3.6 1.3-3.6 1.3-1.4 3.5-1.4-3.5-3.6-1.3 3.6-1.3 1.4-3.5z" fill="#f4e6b6"/>
  </g>

  <rect x="1.5" y="1.5" width="61" height="61" rx="13" fill="none" stroke="#c9a84c" stroke-opacity="0.55"/>
</svg>

